<svg width="337" height="544" viewBox="0 0 337 544" fill="none" xmlns="http://www.w3.org/2000/svg">
<path opacity="0.95" d="M126 405C92.6667 403.333 67 395.167 49 380.5C31.3333 365.5 22.5 346.667 22.5 324C22.5 320.667 22.6667 318 23 316H80V320C80.3333 331.667 84.6667 340.667 93 347C101.333 353.333 112.333 357.333 126 359V287.5C105.667 282.5 88.8333 277.333 75.5 272C62.5 266.667 51.3333 259 42 249C33 238.667 28.5 225.167 28.5 208.5C28.5 185.5 37.3333 167.333 55 154C73 140.333 96.6667 132.5 126 130.5V77.5H151.5V130.5C179.5 132.167 202 139.5 219 152.5C236.333 165.5 245 182 245 202L244.5 212.5H188V211C188 202 184.833 194.5 178.5 188.5C172.167 182.5 163.167 178.667 151.5 177V240C172.5 245 189.667 250.167 203 255.5C216.667 260.5 228.333 268.333 238 279C247.667 289.667 252.5 303.833 252.5 321.5C252.5 348.5 243.5 368.833 225.5 382.5C207.5 395.833 182.833 403.333 151.5 405V463.5H126V405ZM126 176.5C113.333 177.833 103.667 181 97 186C90.6667 191 87.5 196.833 87.5 203.5C87.5 210.833 90.6667 216.833 97 221.5C103.667 225.833 113.333 229.833 126 233.5V176.5ZM151.5 359C163.833 358 173.833 355 181.5 350C189.5 345 193.5 338 193.5 329C193.5 320.333 189.833 313.5 182.5 308.5C175.5 303.167 165.167 298.5 151.5 294.5V359Z" fill="#538651" fill-opacity="0.05"/>
<g filter="url(#filter0_d)">
<path d="M75.41 184.384H148.114C174.909 184.384 195.559 191.723 210.066 206.4C224.743 220.907 232.082 242.837 232.082 272.192C232.082 301.547 224.743 323.563 210.066 338.24C195.559 352.747 174.909 360 148.114 360H75.41V184.384ZM148.114 328.512C163.133 328.512 174.482 323.989 182.162 314.944C190.013 305.728 193.938 292.757 193.938 276.032V268.352C193.938 251.627 190.013 238.741 182.162 229.696C174.482 220.48 163.133 215.872 148.114 215.872H112.53V328.512H148.114Z" fill="#243623"/>
</g>
<path d="M54.6729 184H73.4947V360H54.6729V184Z" fill="#538651" fill-opacity="0.2"/>
<defs>
<filter id="filter0_d" x="51.41" y="180.384" width="180.672" height="183.616" filterUnits="userSpaceOnUse" color-interpolation-filters="sRGB">
<feFlood flood-opacity="0" result="BackgroundImageFix"/>
<feColorMatrix in="SourceAlpha" type="matrix" values="0 0 0 0 0 0 0 0 0 0 0 0 0 0 0 0 0 0 127 0"/>
<feOffset dx="-20"/>
<feGaussianBlur stdDeviation="2"/>
<feColorMatrix type="matrix" values="0 0 0 0 0.33977 0 0 0 0 0.663333 0 0 0 0 0.226086 0 0 0 0.25 0"/>
<feBlend mode="normal" in2="BackgroundImageFix" result="effect1_dropShadow"/>
<feBlend mode="normal" in="SourceGraphic" in2="effect1_dropShadow" result="shape"/>
</filter>
</defs>
</svg>
